<svg xmlns="http://www.w3.org/2000/svg" width="82.7" height="18.68" viewBox="0 0 82.7 18.68">
  <path id="logo" d="M8.22.24A8.32,8.32,0,0,1,5.17-.31,7.566,7.566,0,0,1,2.7-1.86,7.111,7.111,0,0,1,1.05-4.21,7.236,7.236,0,0,1,.46-7.14a7.215,7.215,0,0,1,.59-2.94A6.99,6.99,0,0,1,2.69-12.4a7.651,7.651,0,0,1,2.45-1.53,8.241,8.241,0,0,1,3.04-.55,8.559,8.559,0,0,1,3.04.52,7.479,7.479,0,0,1,2.4,1.44L10.96-9.84a3.431,3.431,0,0,0-1.17-.82,4.01,4.01,0,0,0-1.61-.3,4.03,4.03,0,0,0-1.47.26,3.153,3.153,0,0,0-1.15.76,3.539,3.539,0,0,0-.75,1.21,4.444,4.444,0,0,0-.27,1.59,4.5,4.5,0,0,0,.27,1.61,3.539,3.539,0,0,0,.75,1.21,3.263,3.263,0,0,0,1.15.77,3.9,3.9,0,0,0,1.47.27,4.36,4.36,0,0,0,1.61-.28,3.436,3.436,0,0,0,1.23-.82L13.7-1.7A8,8,0,0,1,11.32-.27,8.582,8.582,0,0,1,8.22.24ZM18.78.2a4.52,4.52,0,0,1-2.44-.66,4.583,4.583,0,0,1-1.66-1.81,5.647,5.647,0,0,1-.6-2.65,5.707,5.707,0,0,1,.6-2.66,4.5,4.5,0,0,1,1.66-1.81,4.573,4.573,0,0,1,2.44-.65,4.268,4.268,0,0,1,1.59.29,3.344,3.344,0,0,1,1.22.81,2.438,2.438,0,0,1,.63,1.2V-2.1a2.438,2.438,0,0,1-.63,1.2,3.344,3.344,0,0,1-1.22.81A4.268,4.268,0,0,1,18.78.2Zm.88-3.44a1.571,1.571,0,0,0,1.19-.47,1.678,1.678,0,0,0,.45-1.21,1.8,1.8,0,0,0-.2-.87,1.514,1.514,0,0,0-.57-.59,1.631,1.631,0,0,0-.85-.22,1.631,1.631,0,0,0-.85.22,1.643,1.643,0,0,0-.59.6,1.685,1.685,0,0,0-.22.86,1.748,1.748,0,0,0,.21.86,1.546,1.546,0,0,0,.59.6A1.646,1.646,0,0,0,19.66-3.24ZM21.18,0V-2.64l.54-2.4-.54-2.38V-9.84H25V0Zm5.7,0V-9.84H30.8V0ZM30.8-5.32,28.98-6.94a6.127,6.127,0,0,1,1.77-2.35,4.127,4.127,0,0,1,2.53-.75,3.788,3.788,0,0,1,1.17.16,1.951,1.951,0,0,1,.79.46L33.04-6.3a1.071,1.071,0,0,0-.41-.27A1.662,1.662,0,0,0,32-6.68a1.12,1.12,0,0,0-.9.35A1.51,1.51,0,0,0,30.8-5.32ZM40.64.24a6.67,6.67,0,0,1-3.02-.65,4.936,4.936,0,0,1-2.03-1.82,4.975,4.975,0,0,1-.73-2.69,4.992,4.992,0,0,1,.71-2.66,5.056,5.056,0,0,1,1.95-1.83,5.8,5.8,0,0,1,2.8-.67,5.688,5.688,0,0,1,2.72.63A4.678,4.678,0,0,1,44.89-7.7a4.889,4.889,0,0,1,.67,2.56q0,.3-.03.63a5.984,5.984,0,0,1-.13.77l-8.88.06v-2.4l7.42-.06L42.12-5.08a3.807,3.807,0,0,0-.19-1.31,1.557,1.557,0,0,0-.57-.77,1.663,1.663,0,0,0-.96-.26,1.8,1.8,0,0,0-1.04.3,1.864,1.864,0,0,0-.67.86,3.581,3.581,0,0,0-.23,1.36,3.31,3.31,0,0,0,.25,1.37,1.783,1.783,0,0,0,.73.83,2.35,2.35,0,0,0,1.2.28,3.067,3.067,0,0,0,1.23-.23,2.761,2.761,0,0,0,.97-.73L44.8-1.44A4.672,4.672,0,0,1,43.02-.18,6.316,6.316,0,0,1,40.64.24Zm11.22,0a6.67,6.67,0,0,1-3.02-.65,4.936,4.936,0,0,1-2.03-1.82,4.975,4.975,0,0,1-.73-2.69,4.992,4.992,0,0,1,.71-2.66,5.056,5.056,0,0,1,1.95-1.83,5.8,5.8,0,0,1,2.8-.67,5.688,5.688,0,0,1,2.72.63A4.678,4.678,0,0,1,56.11-7.7a4.889,4.889,0,0,1,.67,2.56q0,.3-.03.63a5.984,5.984,0,0,1-.13.77l-8.88.06v-2.4l7.42-.06L53.34-5.08a3.807,3.807,0,0,0-.19-1.31,1.557,1.557,0,0,0-.57-.77,1.663,1.663,0,0,0-.96-.26,1.8,1.8,0,0,0-1.04.3,1.864,1.864,0,0,0-.67.86,3.581,3.581,0,0,0-.23,1.36,3.31,3.31,0,0,0,.25,1.37,1.783,1.783,0,0,0,.73.83,2.35,2.35,0,0,0,1.2.28,3.067,3.067,0,0,0,1.23-.23,2.761,2.761,0,0,0,.97-.73l1.96,1.94A4.672,4.672,0,0,1,54.24-.18,6.316,6.316,0,0,1,51.86.24Zm12.32,0A6.7,6.7,0,0,1,60.9-.53a5.537,5.537,0,0,1-2.18-2.13,6.159,6.159,0,0,1-.78-3.12v-8.46h4v8.82a2.146,2.146,0,0,0,.3,1.16,1.948,1.948,0,0,0,.81.73,2.532,2.532,0,0,0,1.13.25,2.453,2.453,0,0,0,1.13-.25,1.865,1.865,0,0,0,.77-.72,2.21,2.21,0,0,0,.28-1.15v-8.84h4.02v8.48a6.166,6.166,0,0,1-.77,3.11A5.505,5.505,0,0,1,67.45-.53,6.643,6.643,0,0,1,64.18.24ZM78.3.2a4.725,4.725,0,0,1-1.66-.29A3.767,3.767,0,0,1,75.32-.9a2.411,2.411,0,0,1-.7-1.2V-7.54a2.709,2.709,0,0,1,.7-1.25,3.987,3.987,0,0,1,1.32-.91,4.109,4.109,0,0,1,1.66-.34,4.884,4.884,0,0,1,2.55.65,4.5,4.5,0,0,1,1.7,1.81,5.63,5.63,0,0,1,.61,2.66,5.571,5.571,0,0,1-.61,2.65,4.584,4.584,0,0,1-1.7,1.81A4.827,4.827,0,0,1,78.3.2Zm-.74-3.44a1.685,1.685,0,0,0,.86-.22,1.546,1.546,0,0,0,.59-.6,1.748,1.748,0,0,0,.21-.86,1.733,1.733,0,0,0-.21-.87,1.588,1.588,0,0,0-.58-.59,1.631,1.631,0,0,0-.85-.22,1.692,1.692,0,0,0-.85.21,1.5,1.5,0,0,0-.58.59,1.79,1.79,0,0,0-.21.88,1.818,1.818,0,0,0,.2.86,1.5,1.5,0,0,0,.57.6A1.631,1.631,0,0,0,77.56-3.24ZM72.24,4.2V-9.84h3.92v2.42l-.64,2.38.54,2.4V4.2Z" transform="translate(-0.46 14.48)" fill="#1b1b1b"/>
</svg>
