<svg xmlns="http://www.w3.org/2000/svg" width="16.143" height="17.711" viewBox="0 0 16.143 17.711">
  <g id="search" transform="translate(-2.999 -3)">
    <path id="合体_1" data-name="合体 1" d="M14.544,17.388l-3.509-4.18A7.2,7.2,0,0,1,2.516,1.646a7.147,7.147,0,0,1,10.064.947,7.167,7.167,0,0,1-.156,9.45l3.506,4.181a.905.905,0,1,1-1.387,1.164ZM3.68,3.033A5.385,5.385,0,0,0,10.6,11.282a5.342,5.342,0,0,0,.593-7.523A5.423,5.423,0,0,0,7.042,1.815,5.205,5.205,0,0,0,3.68,3.033Z" transform="translate(2.999 3)"/>
  </g>
</svg>
